<svg width="34" height="34" viewBox="0 0 34 34" fill="none" xmlns="http://www.w3.org/2000/svg">
<path d="M30.2222 0H3.77778C1.7 0 0 1.7 0 3.77778V30.2222C0 32.3 1.7 34 3.77778 34H30.2222C32.3 34 34 32.3 34 30.2222V3.77778C34 1.7 32.3 0 30.2222 0ZM17.0189 28.3333C15.6967 28.3333 14.6389 27.2756 14.6389 25.9533C14.6389 24.6122 15.6967 23.5922 17.0189 23.5922C18.36 23.5922 19.38 24.6122 19.38 25.9533C19.3611 27.2567 18.36 28.3333 17.0189 28.3333ZM22.7044 14.3556C21.2689 16.4522 19.9089 17.1133 19.1722 18.4544C18.87 19.0022 18.7567 19.3611 18.7567 21.1178H15.3189C15.3189 20.1922 15.1678 18.6811 15.9044 17.3778C16.83 15.7344 18.5867 14.7522 19.6067 13.2978C20.6833 11.7678 20.0789 8.89667 17.0189 8.89667C15.0167 8.89667 14.0344 10.4078 13.6189 11.6922L10.5022 10.37C11.3522 7.83889 13.6378 5.66667 16.9811 5.66667C19.7767 5.66667 21.6844 6.93222 22.6667 8.53778C23.4978 9.89778 23.9889 12.4478 22.7044 14.3556Z" fill="white"/>
</svg>
