<svg width="24" height="23" viewBox="0 0 24 23" fill="none" xmlns="http://www.w3.org/2000/svg">
<path d="M21.2054 0H3.28065C1.87228 0 0.719971 1.15 0.719971 2.55556V20.4444C0.719971 21.85 1.87228 23 3.28065 23H21.2054C22.6138 23 23.7661 21.85 23.7661 20.4444V2.55556C23.7661 1.15 22.6138 0 21.2054 0ZM12.2558 19.1667C11.3596 19.1667 10.6426 18.4511 10.6426 17.5567C10.6426 16.6494 11.3596 15.9594 12.2558 15.9594C13.1649 15.9594 13.8563 16.6494 13.8563 17.5567C13.8435 18.4383 13.1649 19.1667 12.2558 19.1667ZM16.1097 9.71111C15.1366 11.1294 14.2148 11.5767 13.7154 12.4839C13.5106 12.8544 13.4337 13.0972 13.4337 14.2856H11.1035C11.1035 13.6594 11.0011 12.6372 11.5004 11.7556C12.1278 10.6439 13.3185 9.97944 14.0099 8.99556C14.7397 7.96056 14.33 6.01833 12.2558 6.01833C10.8987 6.01833 10.2329 7.04056 9.95122 7.90944L7.83866 7.015C8.41482 5.30278 9.96403 3.83333 12.2302 3.83333C14.1251 3.83333 15.4183 4.68944 16.0841 5.77556C16.6474 6.69556 16.9803 8.42056 16.1097 9.71111Z" fill="#2B99FF"/>
</svg>
