<svg width="22" height="23" viewBox="0 0 22 23" fill="none" xmlns="http://www.w3.org/2000/svg">
<path d="M17.898 15.404C17.6624 15.404 17.4267 15.3172 17.2407 15.1311C16.881 14.7715 16.881 14.1761 17.2407 13.8165L19.7584 11.2988L17.2407 8.78113C16.881 8.42151 16.881 7.8262 17.2407 7.46653C17.6004 7.10686 18.1957 7.10686 18.5553 7.46653L21.7303 10.6415C22.09 11.0011 22.09 11.5965 21.7303 11.9561L18.5553 15.1311C18.3693 15.3172 18.1337 15.404 17.898 15.404Z" fill="#292D32"/>
<path d="M20.9848 12.2292H8.37158C7.86309 12.2292 7.44141 11.8076 7.44141 11.2991C7.44141 10.7906 7.86309 10.3689 8.37158 10.3689H20.9848C21.4933 10.3689 21.915 10.7906 21.915 11.2991C21.915 11.8076 21.4933 12.2292 20.9848 12.2292Z" fill="#292D32"/>
<path d="M10.8521 22.0767C4.46484 22.0767 0 17.6118 0 11.2246C0 4.8374 4.46484 0.372559 10.8521 0.372559C11.3606 0.372559 11.7823 0.794238 11.7823 1.30273C11.7823 1.81123 11.3606 2.23291 10.8521 2.23291C5.55625 2.23291 1.86035 5.92881 1.86035 11.2246C1.86035 16.5204 5.55625 20.2163 10.8521 20.2163C11.3606 20.2163 11.7823 20.638 11.7823 21.1465C11.7823 21.655 11.3606 22.0767 10.8521 22.0767Z" fill="#292D32"/>
</svg>
