<svg width="24" height="23" viewBox="0 0 24 23" fill="none" xmlns="http://www.w3.org/2000/svg">
<g clip-path="url(#clip0_96_264)">
<rect width="5.76153" height="23" fill="#2B99FF"/>
<rect x="17.2847" width="5.76153" height="23" fill="#2B99FF"/>
<path d="M11.523 1.91675C12.784 1.91675 14.0327 2.16463 15.1977 2.64624C16.3627 3.12784 17.4213 3.83375 18.313 4.72364C19.2047 5.61354 19.912 6.66999 20.3946 7.8327C20.8771 8.9954 21.1255 10.2416 21.1255 11.5001C21.1255 14.0417 20.1138 16.4793 18.313 18.2765C16.5122 20.0737 14.0697 21.0834 11.523 21.0834C10.2619 21.0834 9.01326 20.8355 7.84822 20.3539C6.68319 19.8723 5.62461 19.1664 4.73293 18.2765C2.9321 16.4793 1.92041 14.0417 1.92041 11.5001C1.92041 8.95842 2.9321 6.52086 4.73293 4.72364C6.53376 2.92642 8.97621 1.91675 11.523 1.91675ZM16.3242 15.3334V14.3751L15.364 13.4167V10.9155C15.364 9.87091 15.1047 8.95091 14.6054 8.17466C14.1157 7.39841 13.4051 6.90966 12.4832 6.70841V6.22925C12.4832 5.97508 12.382 5.73133 12.202 5.5516C12.0219 5.37188 11.7776 5.27091 11.523 5.27091C11.2683 5.27091 11.024 5.37188 10.844 5.5516C10.6639 5.73133 10.5627 5.97508 10.5627 6.22925V6.70841C9.64086 6.90966 8.93027 7.39841 8.44054 8.17466C7.94121 8.95091 7.68194 9.87091 7.68194 10.9155V13.4167L6.72169 14.3751V15.3334H16.3242ZM12.9633 16.2917H10.0826C10.0826 16.673 10.2343 17.0386 10.5045 17.3082C10.7746 17.5778 11.1409 17.7292 11.523 17.7292C11.905 17.7292 12.2713 17.5778 12.5415 17.3082C12.8116 17.0386 12.9633 16.673 12.9633 16.2917Z" fill="#2B99FF"/>
<rect x="2.30469" width="20.7415" height="4.6" fill="#2B99FF"/>
<rect x="2.30469" y="18.3999" width="20.7415" height="4.6" fill="#2B99FF"/>
</g>
<circle cx="6" cy="6" r="6" fill="#F90C0C"/>
<defs>
<clipPath id="clip0_96_264">
<rect width="23.0461" height="23" rx="2" fill="white"/>
</clipPath>
</defs>
</svg>
