<svg width="24" height="23" viewBox="0 0 24 23" fill="none" xmlns="http://www.w3.org/2000/svg">
<g clip-path="url(#clip0_104_301)">
<rect x="0.795898" width="5.76153" height="23" fill="black"/>
<rect x="18.0806" width="5.76153" height="23" fill="black"/>
<path d="M12.3189 1.91663C13.5799 1.91663 14.8286 2.16451 15.9936 2.64611C17.1586 3.12772 18.2172 3.83362 19.1089 4.72352C20.0006 5.61341 20.7079 6.66987 21.1905 7.83258C21.673 8.99528 21.9214 10.2415 21.9214 11.5C21.9214 14.0416 20.9097 16.4792 19.1089 18.2764C17.3081 20.0736 14.8656 21.0833 12.3189 21.0833C11.0578 21.0833 9.80916 20.8354 8.64412 20.3538C7.47909 19.8722 6.42051 19.1663 5.52883 18.2764C3.728 16.4792 2.71631 14.0416 2.71631 11.5C2.71631 8.9583 3.728 6.52074 5.52883 4.72352C7.32966 2.9263 9.77211 1.91663 12.3189 1.91663ZM17.1201 15.3333V14.375L16.1599 13.4166V10.9154C16.1599 9.87079 15.9006 8.95079 15.4013 8.17454C14.9115 7.39829 14.201 6.90954 13.2791 6.70829V6.22913C13.2791 5.97496 13.1779 5.7312 12.9979 5.55148C12.8178 5.37176 12.5735 5.27079 12.3189 5.27079C12.0642 5.27079 11.8199 5.37176 11.6399 5.55148C11.4598 5.7312 11.3586 5.97496 11.3586 6.22913V6.70829C10.4368 6.90954 9.72617 7.39829 9.23644 8.17454C8.73711 8.95079 8.47784 9.87079 8.47784 10.9154V13.4166L7.51758 14.375V15.3333H17.1201ZM13.7592 16.2916H10.8785C10.8785 16.6729 11.0302 17.0385 11.3004 17.3081C11.5705 17.5777 11.9368 17.7291 12.3189 17.7291C12.7009 17.7291 13.0672 17.5777 13.3374 17.3081C13.6075 17.0385 13.7592 16.6729 13.7592 16.2916Z" fill="black"/>
<rect x="3.10059" width="20.7415" height="4.6" fill="black"/>
<rect x="3.10059" y="18.4" width="20.7415" height="4.6" fill="black"/>
</g>
<defs>
<clipPath id="clip0_104_301">
<rect x="0.795898" width="23.0461" height="23" rx="2" fill="white"/>
</clipPath>
</defs>
</svg>
