<svg width="23" height="23" viewBox="0 0 23 23" fill="none" xmlns="http://www.w3.org/2000/svg">
<g clip-path="url(#clip0_73_192)">
<rect width="5.75" height="23" fill="#2B99FF"/>
<rect x="17.25" width="5.75" height="23" fill="#2B99FF"/>
<path d="M11.5001 1.91667C12.7586 1.91667 14.0048 2.16455 15.1675 2.64616C16.3302 3.12777 17.3866 3.83367 18.2765 4.72357C19.1664 5.61346 19.8723 6.66992 20.3539 7.83262C20.8355 8.99533 21.0834 10.2415 21.0834 11.5C21.0834 14.0417 20.0737 16.4792 18.2765 18.2764C16.4793 20.0737 14.0417 21.0833 11.5001 21.0833C10.2416 21.0833 8.9954 20.8355 7.8327 20.3539C6.66999 19.8722 5.61354 19.1663 4.72364 18.2764C2.92642 16.4792 1.91675 14.0417 1.91675 11.5C1.91675 8.95835 2.92642 6.52079 4.72364 4.72357C6.52086 2.92634 8.95842 1.91667 11.5001 1.91667ZM16.2917 15.3333V14.375L15.3334 13.4167V10.9154C15.3334 9.87084 15.0747 8.95084 14.5763 8.17459C14.0876 7.39834 13.3784 6.90959 12.4584 6.70834V6.22917C12.4584 5.97501 12.3574 5.73125 12.1777 5.55153C11.998 5.37181 11.7542 5.27084 11.5001 5.27084C11.2459 5.27084 11.0022 5.37181 10.8224 5.55153C10.6427 5.73125 10.5417 5.97501 10.5417 6.22917V6.70834C9.62175 6.90959 8.91258 7.39834 8.42383 8.17459C7.9255 8.95084 7.66675 9.87084 7.66675 10.9154V13.4167L6.70841 14.375V15.3333H16.2917ZM12.9376 16.2917H10.0626C10.0626 16.6729 10.214 17.0386 10.4836 17.3081C10.7532 17.5777 11.1188 17.7292 11.5001 17.7292C11.8813 17.7292 12.247 17.5777 12.5165 17.3081C12.7861 17.0386 12.9376 16.6729 12.9376 16.2917Z" fill="#2B99FF"/>
<rect x="2.30005" width="20.7" height="4.6" fill="#2B99FF"/>
<rect x="2.30005" y="18.4" width="20.7" height="4.6" fill="#2B99FF"/>
</g>
<defs>
<clipPath id="clip0_73_192">
<rect width="23" height="23" rx="2" fill="white"/>
</clipPath>
</defs>
</svg>
